<?xml version="1.0" encoding="utf-8"?>
<!-- Generator: Adobe Illustrator 25.4.1, SVG Export Plug-In . SVG Version: 6.00 Build 0)  -->
<svg version="1.1" id="Layer_1" xmlns="http://www.w3.org/2000/svg" xmlns:xlink="http://www.w3.org/1999/xlink" x="0px" y="0px"
	 viewBox="0 0 200 200" style="enable-background:new 0 0 200 200;" xml:space="preserve">
<style type="text/css">
	.st0{fill:#FFFFFF;}
	.st1{fill:#097CC1;}
	.st2{font-family:'NexaBold';}
	.st3{font-size:216.8952px;}
</style>
<path class="st0" d="M117.9,23.4c-0.8,0-1.7-0.1-2.5-0.1c-4.2,0-5.1,5.9-1.5,7.4c-3.9,0.8-7.7,2-11.3,4.1c-2.4,1.3-2.6,5.4,0,6.6
	c12.1,5.8,26.5,3.1,39.4,2.9c3.5,0,4.5-3.9,3-6.2c3.1,0.2,6.1,0.3,9.1,0.1c2.4-0.1,3.8-2.3,3.8-4.3C144.5,30.4,131,27.4,117.9,23.4z
	 M118.5,37.5c4.3-0.6,8.7-0.6,13.1-0.3C127.3,37.5,122.8,37.7,118.5,37.5z"/>
<path class="st0" d="M110,38.6c7.8,2.6,15.8,2.6,23.7,0.6c4.8-1.2,2.8-8.6-2-7.4c-6.7,1.7-13.1,1.6-19.7-0.6
	C107.4,29.6,105.4,37,110,38.6"/>
<path class="st0" d="M159.5,43.8c4.9,0,4.9-7.7,0-7.7C154.6,36.2,154.6,43.8,159.5,43.8"/>
<path class="st0" d="M111.7,32.4c4.9,0,4.9-7.7,0-7.7C106.7,24.7,106.7,32.4,111.7,32.4"/>
<path class="st0" d="M103.6,44.3c14,2.5,27.8-0.9,41.8-1.1c4.9-0.1,4.9-7.7,0-7.7c-13.2,0.2-26.7,3.7-39.8,1.4
	C100.9,36.1,98.8,43.5,103.6,44.3"/>
<path class="st0" d="M98.3,59.8H150c4.9,0,4.9-7.7,0-7.7H98.3C93.3,52.1,93.3,59.8,98.3,59.8"/>
<path class="st0" d="M152.5,42.6c-14.5,1.4-28.8,4.1-43.4,2.6c0.3,2.5,0.7,5,1,7.5c8.8-3.2,20.9-5.2,30.2-3.5
	c-1.1-0.2,3.4-3.1-1.7-2.1c-2.7,0.5-5.6,0.6-8.4,0.8c-3.2,0.2-6.5,0.1-9.7,0.5c-3.9,0.5-5.7,6.7-1,7.5c10.4,1.8,23,5.6,32.9,0.3
	c2.9-1.6,2.2-6.2-0.9-7c-18.1-4.6-35.8,1.3-54,1.8c-4.9,0.1-4.9,7.8,0,7.7c17.3-0.5,34.7-6.4,51.9-2c-0.3-2.3-0.6-4.7-0.9-7
	c-7.7,4.1-18.9,0.4-27-1c-0.3,2.5-0.7,5-1,7.5c5-0.7,30.9,1.6,28-9c-3.3-12-32.9-4.4-40.5-1.7c-4.2,1.5-3.3,7.1,1,7.5
	c14.6,1.5,28.9-1.1,43.4-2.6C157.4,49.7,157.4,42.1,152.5,42.6"/>
<path class="st1" d="M167.8,135.4c0,16.9-13.7,30.6-30.6,30.6h-74c-16.9,0-30.6-13.7-30.6-30.6v-74c0-16.9,13.7-30.6,30.6-30.6h74
	c16.9,0,30.6,13.7,30.6,30.6V135.4z"/>
<text transform="matrix(1 0 0 1 35.7676 152.3193)" class="st0 st2 st3">d</text>
<path class="st0" d="M110.6,98.9c0,8.5-6.9,15.3-15.3,15.3c-8.5,0-15.3-6.9-15.3-15.3c0-8.5,6.9-15.3,15.3-15.3
	C103.8,83.6,110.6,90.5,110.6,98.9"/>
</svg>
